<svg width="24" height="25" viewBox="0 0 24 25" fill="none" xmlns="http://www.w3.org/2000/svg">
<path d="M12 0.762329C10.8066 0.762329 9.66196 1.24422 8.81805 2.10198C7.97414 2.95975 7.50003 4.12313 7.50003 5.33619V6.0985H6.87753C6.24612 6.09783 5.63878 6.3447 5.18194 6.78773C4.72511 7.23076 4.45399 7.83581 4.42503 8.47691L3.83253 21.0169C3.81734 21.3541 3.86949 21.691 3.98582 22.0071C4.10216 22.3233 4.28028 22.6123 4.50944 22.8566C4.7386 23.1009 5.01407 23.2955 5.31923 23.4287C5.62439 23.562 5.95292 23.631 6.28503 23.6316H17.715C18.0471 23.631 18.3757 23.562 18.6808 23.4287C18.986 23.2955 19.2615 23.1009 19.4906 22.8566C19.7198 22.6123 19.8979 22.3233 20.0142 22.0071C20.1306 21.691 20.1827 21.3541 20.1675 21.0169L19.575 8.47691C19.5461 7.83581 19.2749 7.23076 18.8181 6.78773C18.3613 6.3447 17.7539 6.09783 17.1225 6.0985H16.5V5.33619C16.5 4.12313 16.0259 2.95975 15.182 2.10198C14.3381 1.24422 13.1935 0.762329 12 0.762329ZM9.00003 5.33619C9.00003 4.52748 9.3161 3.7519 9.87871 3.18005C10.4413 2.60821 11.2044 2.28695 12 2.28695C12.7957 2.28695 13.5587 2.60821 14.1213 3.18005C14.684 3.7519 15 4.52748 15 5.33619V6.0985H9.00003V5.33619ZM7.77003 9.29258C7.77003 9.14181 7.81402 8.99443 7.89643 8.86907C7.97884 8.74371 8.09597 8.646 8.23302 8.5883C8.37006 8.5306 8.52086 8.51551 8.66635 8.54492C8.81183 8.57434 8.94547 8.64694 9.05036 8.75355C9.15525 8.86016 9.22668 8.99599 9.25562 9.14387C9.28456 9.29174 9.26971 9.44501 9.21294 9.58431C9.15617 9.7236 9.06004 9.84266 8.93671 9.92642C8.81337 10.0102 8.66837 10.0549 8.52003 10.0549C8.32112 10.0549 8.13035 9.97458 7.9897 9.83162C7.84905 9.68866 7.77003 9.49476 7.77003 9.29258ZM14.73 9.29258C14.73 9.14181 14.774 8.99443 14.8564 8.86907C14.9388 8.74371 15.056 8.646 15.193 8.5883C15.3301 8.5306 15.4809 8.51551 15.6263 8.54492C15.7718 8.57434 15.9055 8.64694 16.0104 8.75355C16.1152 8.86016 16.1867 8.99599 16.2156 9.14387C16.2446 9.29174 16.2297 9.44501 16.1729 9.58431C16.1162 9.7236 16.02 9.84266 15.8967 9.92642C15.7734 10.0102 15.6284 10.0549 15.48 10.0549C15.2811 10.0549 15.0904 9.97458 14.9497 9.83162C14.809 9.68866 14.73 9.49476 14.73 9.29258Z" fill="#9E9E9E"/>
</svg>
