<svg width="23" height="23" viewBox="0 0 23 23" fill="none" xmlns="http://www.w3.org/2000/svg">
<g clip-path="url(#clip0_5027_68)">
<path d="M11.5 0C5.15008 0 0 5.14913 0 11.5C0 16.5811 3.29475 20.8917 7.86504 22.4125C8.43908 22.5189 8.625 22.1624 8.625 21.8596V19.7187C5.42608 20.4144 4.76004 18.3617 4.76004 18.3617C4.23679 17.0325 3.48258 16.6788 3.48258 16.6788C2.43896 15.9649 3.56212 15.9802 3.56212 15.9802C4.71692 16.0607 5.3245 17.1657 5.3245 17.1657C6.34992 18.9233 8.01454 18.4153 8.671 18.1211C8.77354 17.3784 9.07158 16.8705 9.40125 16.584C6.84729 16.2917 4.16204 15.3055 4.16204 10.9001C4.16204 9.64371 4.6115 8.61829 5.34654 7.81329C5.22771 7.52292 4.83383 6.35279 5.45867 4.76963C5.45867 4.76963 6.42467 4.46104 8.62212 5.94837C9.53925 5.69346 10.5225 5.566 11.5 5.56121C12.4775 5.566 13.4617 5.69346 14.3807 5.94837C16.5763 4.46104 17.5404 4.76963 17.5404 4.76963C18.1662 6.35375 17.7723 7.52387 17.6535 7.81329C18.3914 8.61829 18.837 9.64467 18.837 10.9001C18.837 15.317 16.147 16.2897 13.5863 16.5744C13.9984 16.9309 14.375 17.6305 14.375 18.7038V21.8596C14.375 22.1653 14.559 22.5247 15.1426 22.4116C19.7091 20.8888 23 16.5792 23 11.5C23 5.14913 17.8509 0 11.5 0Z" fill="black"/>
</g>
<defs>
<clipPath id="clip0_5027_68">
<rect width="23" height="23" fill="white"/>
</clipPath>
</defs>
</svg>
